<svg height="512pt" viewBox="0 -62 512 512" width="512pt" xmlns="http://www.w3.org/2000/svg"><path d="m512 285.585938v-150.5h-59.667969v-88.710938l53.742188-17.914062-9.484375-28.460938-128 42.667969 9.484375 28.460937 44.257812-14.753906v78.710938h-39.980469c-25.703124-43-72.71875-71.855469-126.351562-71.855469s-100.648438 28.855469-126.351562 71.855469h-39.980469v-78.710938l44.257812 14.753906 9.484375-28.460937-128-42.667969-9.484375 28.460938 53.742188 17.914062v88.710938h-59.667969v150.5h59.667969v37.363281l-43.339844 43.339843 21.210937 21.214844 37.128907-37.125 37.125 37.125 21.210937-21.214844-43.335937-43.339843v-37.367188h39.980469c9.542968 15.964844 22.019531 29.972657 36.683593 41.28125v60.699219h30v-42.78125c18.246094 8.128906 38.4375 12.65625 59.667969 12.65625s41.421875-4.527344 59.667969-12.65625v42.78125h30v-60.699219c14.664062-11.308593 27.140625-25.316406 36.683593-41.277343h39.980469v37.367187l-43.335937 43.335937 21.210937 21.214844 37.125-37.125 37.128907 37.125 21.210937-21.210937-43.339844-43.339844v-37.367187zm-256 41.851562c-64.570312 0-117.105469-52.53125-117.105469-117.101562 0-64.574219 52.535157-117.105469 117.105469-117.105469s117.105469 52.53125 117.105469 117.101562c0 64.570313-52.535157 117.105469-117.105469 117.105469zm-226-162.351562h86.027344c-4.625 14.261718-7.132813 29.464843-7.132813 45.25 0 15.78125 2.507813 30.984374 7.132813 45.25h-86.027344zm365.972656 0h86.027344v90.5h-86.027344c4.625-14.265626 7.132813-29.46875 7.132813-45.25 0-15.785157-2.507813-30.988282-7.132813-45.25zm0 0"/><path d="m213.332031 195.335938h85.335938v30h-85.335938zm0 0"/></svg>