<?xml version="1.0" encoding="iso-8859-1"?>
<!-- Generator: Adobe Illustrator 19.0.0, SVG Export Plug-In . SVG Version: 6.00 Build 0)  -->
<svg version="1.1" id="Capa_1" xmlns="http://www.w3.org/2000/svg" xmlns:xlink="http://www.w3.org/1999/xlink" x="0px" y="0px"
	 viewBox="0 0 512 512" style="enable-background:new 0 0 512 512;" xml:space="preserve">
<g>
	<g>
		<rect x="98.517" y="76.023" style="fill:#81CB97;" width="44.996" height="44.996"/>
		<polygon style="fill:#81CB97;" points="8.533,256 8.533,300.996 8.533,345.984 8.533,390.98 53.53,390.98 53.53,345.984 
			53.53,300.996 53.53,256 		"/>
		<rect x="368.529" y="76.015" style="fill:#81CB97;" width="44.996" height="44.996"/>
		<polygon style="fill:#81CB97;" points="458.47,256 458.47,300.996 458.47,345.984 458.47,390.98 503.467,390.98 503.467,345.984 
			503.467,300.996 503.467,256 		"/>
	</g>
	<path style="fill:#B82B6A;" d="M413.44,211.029v-45.056h-44.971v-44.971h-44.971v44.971H188.501v-44.971h-44.971v44.971H98.56
		v45.056H53.504V256H98.56v134.997h44.971v-44.971h224.939v44.971h44.971V256h45.056v-44.971H413.44z M188.501,256h-44.971v-44.971
		h44.971V256z M368.469,256h-44.971v-44.971h44.971V256z"/>
	<path style="fill:#EB3A76;" d="M385.536,211.029v-45.056h-44.971v-44.971h-17.067v44.971H160.597v-44.971h-17.067v44.971H98.56
		v45.056H53.504V256H98.56v134.997h44.971v-44.971h224.939v44.971h17.067V256h45.056v-44.971H385.536z M188.501,256h-44.971v-44.971
		h44.971V256z M368.469,256h-44.971v-44.971h44.971V256z"/>
	<g>
		<polygon style="fill:#81CB97;" points="143.514,390.98 143.514,435.977 188.51,435.977 233.506,435.977 233.506,390.98 
			188.51,390.98 		"/>
		<polygon style="fill:#81CB97;" points="323.49,390.98 278.494,390.98 278.494,435.977 323.49,435.977 368.486,435.977 
			368.486,390.98 		"/>
	</g>
	<rect x="98.517" y="76.023" style="fill:#B82B6A;" width="44.996" height="44.996"/>
	<polygon style="fill:#EB3A76;" points="8.533,256 8.533,300.996 8.533,345.984 8.533,390.98 53.53,390.98 53.53,345.984 
		53.53,300.996 53.53,256 	"/>
	<g>
		<rect x="368.529" y="76.015" style="fill:#B82B6A;" width="44.996" height="44.996"/>
		<polygon style="fill:#B82B6A;" points="458.47,256 458.47,300.996 458.47,345.984 458.47,390.98 503.467,390.98 503.467,345.984 
			503.467,300.996 503.467,256 		"/>
		<path style="fill:#B82B6A;" d="M160.597,121.003v44.971h27.904v-44.971H160.597z M340.565,121.003v44.971h27.904v-44.971H340.565z
			 M385.536,165.973v45.056h27.904v-45.056H385.536z M385.536,256v134.997h27.904V256H385.536z M430.592,211.029V256h27.904v-44.971
			H430.592z"/>
		<polygon style="fill:#B82B6A;" points="143.514,390.98 143.514,435.977 188.51,435.977 233.506,435.977 233.506,390.98 
			188.51,390.98 		"/>
		<rect x="278.528" y="390.997" style="fill:#B82B6A;" width="89.941" height="44.971"/>
	</g>
	<rect x="278.528" y="393.301" style="fill:#EB3A76;" width="54.272" height="42.667"/>
	<g>
		<rect x="145.067" y="213.333" style="fill:#FFFFFF;" width="42.667" height="42.667"/>
		<rect x="324.267" y="213.333" style="fill:#FFFFFF;" width="42.667" height="42.667"/>
	</g>
	<g>
		<path d="M503.467,247.467h-36.433v-36.433c0.001-2.264-0.897-4.435-2.498-6.035c-1.601-1.601-3.772-2.499-6.035-2.498h-36.525
			v-36.525c0.001-2.264-0.897-4.435-2.498-6.035c-1.601-1.601-3.772-2.499-6.035-2.498H377V129.55h36.475
			c2.264,0.001,4.435-0.897,6.035-2.498c1.601-1.601,2.499-3.772,2.498-6.035V76.025c0.001-2.264-0.897-4.435-2.498-6.035
			s-3.772-2.499-6.035-2.498h-44.992c-2.264-0.001-4.435,0.897-6.035,2.498c-1.601,1.601-2.499,3.772-2.498,6.035v36.442H323.5
			c-2.264-0.001-4.435,0.897-6.035,2.498c-1.601,1.601-2.499,3.772-2.498,6.035v36.442H197.033V121
			c0.001-2.264-0.897-4.435-2.498-6.035c-1.601-1.601-3.772-2.499-6.035-2.498h-36.45V76.025c0.001-2.264-0.897-4.435-2.498-6.035
			c-1.601-1.601-3.772-2.499-6.035-2.498H98.525c-2.264-0.001-4.435,0.897-6.035,2.498c-1.601,1.601-2.499,3.772-2.498,6.035v44.992
			c-0.001,2.264,0.897,4.435,2.498,6.035c1.601,1.601,3.772,2.499,6.035,2.498H135v27.892H98.558
			c-2.264-0.001-4.435,0.897-6.035,2.498c-1.601,1.601-2.499,3.772-2.498,6.035V202.5H53.5c-2.264-0.001-4.435,0.897-6.035,2.498
			c-1.601,1.601-2.499,3.772-2.498,6.035v36.433H8.533c-2.264-0.001-4.435,0.897-6.035,2.498S-0.001,253.736,0,256v134.983
			c-0.001,2.264,0.897,4.435,2.498,6.035s3.772,2.499,6.035,2.498h44.992c2.264,0.001,4.435-0.897,6.035-2.498
			c1.601-1.601,2.499-3.772,2.498-6.035v-126.45h27.967V391c-0.001,2.264,0.897,4.435,2.498,6.035
			c1.601,1.601,3.772,2.499,6.035,2.498h36.425v36.442c-0.001,2.264,0.897,4.435,2.498,6.035c1.601,1.601,3.772,2.499,6.035,2.498
			H233.5c2.264,0.001,4.435-0.897,6.035-2.498c1.601-1.601,2.499-3.772,2.498-6.035v-44.992c0.001-2.264-0.897-4.435-2.498-6.035
			c-1.601-1.601-3.772-2.499-6.035-2.498h-81.434v-27.892h207.867v27.892H278.5c-2.264-0.001-4.435,0.897-6.035,2.498
			c-1.601,1.601-2.499,3.772-2.498,6.035v44.992c-0.001,2.264,0.897,4.435,2.498,6.035c1.601,1.601,3.772,2.499,6.035,2.498h89.984
			c2.264,0.001,4.435-0.897,6.035-2.498c1.601-1.601,2.499-3.772,2.498-6.035v-36.442h36.425c2.264,0.001,4.435-0.897,6.035-2.498
			c1.601-1.601,2.499-3.772,2.498-6.035V264.533h27.967v126.45c-0.001,2.264,0.897,4.435,2.498,6.035
			c1.601,1.601,3.772,2.499,6.035,2.498h44.992c2.264,0.001,4.435-0.897,6.035-2.498c1.601-1.601,2.499-3.772,2.498-6.035V256
			c0.001-2.264-0.897-4.435-2.498-6.035C507.901,248.364,505.73,247.465,503.467,247.467z M377.017,84.558h27.925v27.925h-27.925
			V84.558z M134.983,112.483h-27.925V84.558h27.925V112.483z M44.992,382.45H17.067V264.533h27.925V382.45z M224.967,427.442H152.05
			v-27.925h72.917V427.442z M359.95,427.442h-72.917v-27.925h72.917V427.442z M413.442,247.467
			c-2.264-0.001-4.435,0.897-6.035,2.498c-1.601,1.601-2.499,3.772-2.498,6.035v126.467H377v-36.442
			c0.001-2.264-0.897-4.435-2.498-6.035s-3.772-2.499-6.035-2.498H143.533c-2.264-0.001-4.435,0.897-6.035,2.498
			c-1.601,1.601-2.499,3.772-2.498,6.035v36.442h-27.908V256c0.001-2.264-0.897-4.435-2.498-6.035
			c-1.601-1.601-3.772-2.499-6.035-2.498H62.033v-27.9h36.525c2.264,0.001,4.435-0.897,6.035-2.498
			c1.601-1.601,2.499-3.772,2.498-6.035v-36.525h36.442c2.264,0.001,4.435-0.897,6.035-2.498c1.601-1.601,2.499-3.772,2.498-6.035
			v-36.442h27.9v36.442c-0.001,2.264,0.897,4.435,2.498,6.035s3.772,2.499,6.035,2.498h135c2.264,0.001,4.435-0.897,6.035-2.498
			c1.601-1.601,2.499-3.772,2.498-6.035v-36.442h27.9v36.442c-0.001,2.264,0.897,4.435,2.498,6.035
			c1.601,1.601,3.772,2.499,6.035,2.498h36.442v36.525c-0.001,2.264,0.897,4.435,2.498,6.035c1.601,1.601,3.772,2.499,6.035,2.498
			h36.525v27.9H413.442z M494.933,382.45h-27.925V264.533h27.925V382.45z"/>
		<path d="M188.5,202.5h-44.967c-2.264-0.001-4.435,0.897-6.035,2.498c-1.601,1.601-2.499,3.772-2.498,6.035V256
			c-0.001,2.264,0.897,4.435,2.498,6.035c1.601,1.601,3.772,2.499,6.035,2.498H188.5c2.264,0.001,4.435-0.897,6.035-2.498
			c1.601-1.601,2.499-3.772,2.498-6.035v-44.967c0.001-2.264-0.897-4.435-2.498-6.035C192.935,203.397,190.764,202.499,188.5,202.5z
			 M179.967,247.467h-27.9v-27.9h27.9V247.467z"/>
		<path d="M368.467,202.5H323.5c-2.264-0.001-4.435,0.897-6.035,2.498c-1.601,1.601-2.499,3.772-2.498,6.035V256
			c-0.001,2.264,0.897,4.435,2.498,6.035c1.601,1.601,3.772,2.499,6.035,2.498h44.967c2.264,0.001,4.435-0.897,6.035-2.498
			s2.499-3.772,2.498-6.035v-44.967c0.001-2.264-0.897-4.435-2.498-6.035C372.902,203.397,370.73,202.499,368.467,202.5z
			 M359.933,247.467h-27.9v-27.9h27.9V247.467z"/>
	</g>
</g>
<g>
</g>
<g>
</g>
<g>
</g>
<g>
</g>
<g>
</g>
<g>
</g>
<g>
</g>
<g>
</g>
<g>
</g>
<g>
</g>
<g>
</g>
<g>
</g>
<g>
</g>
<g>
</g>
<g>
</g>
</svg>
